<?xml version="1.0" encoding="UTF-8"?>
<!DOCTYPE svg  PUBLIC '-//W3C//DTD SVG 1.1//EN'  'http://www.w3.org/Graphics/SVG/1.1/DTD/svg11.dtd'>
<svg width='50' height='50' enable-background="new 0 0 219.151 219.151" fill="#fff" version="1.1" viewBox="0 0 219.15 219.15" xml:space="preserve" xmlns="http://www.w3.org/2000/svg">
	<path d="m109.58 219.15c60.419 0 109.57-49.156 109.57-109.58 0-60.419-49.154-109.58-109.57-109.58s-109.57 49.156-109.57 109.58c0 60.42 49.155 109.58 109.57 109.58zm0-204.15c52.148 0 94.573 42.426 94.574 94.575 0 52.149-42.425 94.575-94.574 94.576-52.148-1e-3 -94.573-42.427-94.573-94.577 0-52.147 42.425-94.574 94.573-94.574z"/>
	<path d="m94.861 156.51c2.929 2.928 7.678 2.927 10.606 0 2.93-2.93 2.93-7.678-1e-3 -10.608l-28.82-28.819 83.457-8e-3c4.142-1e-3 7.499-3.358 7.499-7.502-1e-3 -4.142-3.358-7.498-7.5-7.498l-83.46 8e-3 28.827-28.825c2.929-2.929 2.929-7.679 0-10.607-1.465-1.464-3.384-2.197-5.304-2.197-1.919 0-3.838 0.733-5.303 2.196l-41.629 41.628c-1.407 1.406-2.197 3.313-2.197 5.303 1e-3 1.99 0.791 3.896 2.198 5.305l41.627 41.624z"/>
</svg>
