<?xml version="1.0" encoding="UTF-8"?>
<svg enable-background="new 0 0 20.633 20.633" version="1.1" viewBox="0 0 20.633 20.633" xml:space="preserve" xmlns="http://www.w3.org/2000/svg">

	<path d="m10.79 15.617 9.648-9.646c0.133-0.131 0.195-0.301 0.195-0.473s-0.062-0.344-0.195-0.473l-0.012-0.012c-0.125-0.127-0.295-0.195-0.472-0.195h-4.682c-0.18 0-0.348 0.068-0.473 0.195l-4.48 4.479-4.48-4.479c-0.128-0.127-0.299-0.195-0.473-0.195h-4.682c-0.182 0-0.349 0.068-0.475 0.195l-0.013 0.012c-0.128 0.123-0.196 0.297-0.196 0.473s0.068 0.348 0.196 0.473l9.648 9.646c0.264 0.263 0.686 0.263 0.946 0z"/>
	
	
	
	
	
	
	
	
	
	
	
	
	
	
	
















</svg>
