<svg width="0" height="0" class="hidden">
  <symbol  width='48' height='48' xmlns="http://www.w3.org/2000/svg" viewBox="0 0 512 512" id="instagram" fill="#1890ff">
    <path d="M352 0H160C71.648 0 0 71.648 0 160v192c0 88.352 71.648 160 160 160h192c88.352 0 160-71.648 160-160V160C512 71.648 440.352 0 352 0zm112 352c0 61.76-50.24 112-112 112H160c-61.76 0-112-50.24-112-112V160C48 98.24 98.24 48 160 48h192c61.76 0 112 50.24 112 112v192z"></path>
    <path d="M256 128c-70.688 0-128 57.312-128 128s57.312 128 128 128 128-57.312 128-128-57.312-128-128-128zm0 208c-44.096 0-80-35.904-80-80 0-44.128 35.904-80 80-80s80 35.872 80 80c0 44.096-35.904 80-80 80z"></path>
    <circle cx="393.6" cy="118.4" r="17.056"></circle>
  </symbol>
  <symbol fill="#1890ff"  width='48' height='48' xmlns="http://www.w3.org/2000/svg" viewBox="0 0 512 512" id="twitter">
    <path d="M512 97.248c-19.04 8.352-39.328 13.888-60.48 16.576 21.76-12.992 38.368-33.408 46.176-58.016-20.288 12.096-42.688 20.64-66.56 25.408C411.872 60.704 384.416 48 354.464 48c-58.112 0-104.896 47.168-104.896 104.992 0 8.32.704 16.32 2.432 23.936-87.264-4.256-164.48-46.08-216.352-109.792-9.056 15.712-14.368 33.696-14.368 53.056 0 36.352 18.72 68.576 46.624 87.232-16.864-.32-33.408-5.216-47.424-12.928v1.152c0 51.008 36.384 93.376 84.096 103.136-8.544 2.336-17.856 3.456-27.52 3.456-6.72 0-13.504-.384-19.872-1.792 13.6 41.568 52.192 72.128 98.08 73.12-35.712 27.936-81.056 44.768-130.144 44.768-8.608 0-16.864-.384-25.12-1.44C46.496 446.88 101.6 464 161.024 464c193.152 0 298.752-160 298.752-298.688 0-4.64-.16-9.12-.384-13.568 20.832-14.784 38.336-33.248 52.608-54.496z"></path>
  </symbol>
  <symbol fill="#1890ff"  width='48' height='48' xmlns="http://www.w3.org/2000/svg" viewBox="0 0 512 512" id="facebook">
    <path d="M288 176v-64c0-17.664 14.336-32 32-32h32V0h-64c-53.024 0-96 42.976-96 96v80h-64v80h64v256h96V256h64l32-80h-96z"></path>
  </symbol>
  <symbol viewBox="0 0 24 24" xmlns="http://www.w3.org/2000/svg" id="like" stroke='#fff' stroke-width='1'>
    <path d="M1.75 23h2.5C5.215 23 6 22.215 6 21.25V9.75C6 8.785 5.215 8 4.25 8h-2.5C.785 8 0 8.785 0 9.75v11.5C0 22.215.785 23 1.75 23zM12.781.75c-1 0-1.5.5-1.5 3 0 2.376-2.301 4.288-3.781 5.273v12.388c1.601.741 4.806 1.839 9.781 1.839h1.6c1.95 0 3.61-1.4 3.94-3.32l1.12-6.5a3.998 3.998 0 0 0-3.94-4.68h-4.72s.75-1.5.75-4c0-3-2.25-4-3.25-4z"></path>
  </symbol>
  <symbol viewBox="0 0 24 24" xmlns="http://www.w3.org/2000/svg" id="dislike" stroke='#fff' stroke-width='1' >
    <path d="M22.25 1h-2.5C18.785 1 18 1.785 18 2.75v11.5c0 .965.785 1.75 1.75 1.75h2.5c.965 0 1.75-.785 1.75-1.75V2.75C24 1.785 23.215 1 22.25 1zM5.119.75c-1.95 0-3.61 1.4-3.94 3.32l-1.12 6.5a3.998 3.998 0 0 0 3.94 4.68h4.72s-.75 1.5-.75 4c0 3 2.25 4 3.25 4s1.5-.5 1.5-3c0-2.376 2.301-4.288 3.781-5.273V2.589C14.899 1.848 11.694.75 6.719.75z"></path>
  </symbol>
</svg>
