<svg width="0" height="0" class="hidden">
  <symbol  width='48' height='48' xmlns="http://www.w3.org/2000/svg" viewBox="0 0 512 512" id="instagram" fill="#1890ff">
    <path d="M352 0H160C71.648 0 0 71.648 0 160v192c0 88.352 71.648 160 160 160h192c88.352 0 160-71.648 160-160V160C512 71.648 440.352 0 352 0zm112 352c0 61.76-50.24 112-112 112H160c-61.76 0-112-50.24-112-112V160C48 98.24 98.24 48 160 48h192c61.76 0 112 50.24 112 112v192z"></path>
    <path d="M256 128c-70.688 0-128 57.312-128 128s57.312 128 128 128 128-57.312 128-128-57.312-128-128-128zm0 208c-44.096 0-80-35.904-80-80 0-44.128 35.904-80 80-80s80 35.872 80 80c0 44.096-35.904 80-80 80z"></path>
    <circle cx="393.6" cy="118.4" r="17.056"></circle>
  </symbol>
  <symbol fill="#1890ff"  width='48' height='48' xmlns="http://www.w3.org/2000/svg" viewBox="0 0 512 512" id="twitter">
    <path d="M512 97.248c-19.04 8.352-39.328 13.888-60.48 16.576 21.76-12.992 38.368-33.408 46.176-58.016-20.288 12.096-42.688 20.64-66.56 25.408C411.872 60.704 384.416 48 354.464 48c-58.112 0-104.896 47.168-104.896 104.992 0 8.32.704 16.32 2.432 23.936-87.264-4.256-164.48-46.08-216.352-109.792-9.056 15.712-14.368 33.696-14.368 53.056 0 36.352 18.72 68.576 46.624 87.232-16.864-.32-33.408-5.216-47.424-12.928v1.152c0 51.008 36.384 93.376 84.096 103.136-8.544 2.336-17.856 3.456-27.52 3.456-6.72 0-13.504-.384-19.872-1.792 13.6 41.568 52.192 72.128 98.08 73.12-35.712 27.936-81.056 44.768-130.144 44.768-8.608 0-16.864-.384-25.12-1.44C46.496 446.88 101.6 464 161.024 464c193.152 0 298.752-160 298.752-298.688 0-4.64-.16-9.12-.384-13.568 20.832-14.784 38.336-33.248 52.608-54.496z"></path>
  </symbol>
  <symbol fill="#1890ff"  width='48' height='48' xmlns="http://www.w3.org/2000/svg" viewBox="0 0 512 512" id="facebook">
    <path d="M288 176v-64c0-17.664 14.336-32 32-32h32V0h-64c-53.024 0-96 42.976-96 96v80h-64v80h64v256h96V256h64l32-80h-96z"></path>
  </symbol>
  <symbol viewBox="0 0 24 24" xmlns="http://www.w3.org/2000/svg" id="like" stroke='#fff' stroke-width='1'>
    <path d="M1.75 23h2.5C5.215 23 6 22.215 6 21.25V9.75C6 8.785 5.215 8 4.25 8h-2.5C.785 8 0 8.785 0 9.75v11.5C0 22.215.785 23 1.75 23zM12.781.75c-1 0-1.5.5-1.5 3 0 2.376-2.301 4.288-3.781 5.273v12.388c1.601.741 4.806 1.839 9.781 1.839h1.6c1.95 0 3.61-1.4 3.94-3.32l1.12-6.5a3.998 3.998 0 0 0-3.94-4.68h-4.72s.75-1.5.75-4c0-3-2.25-4-3.25-4z"></path>
  </symbol>
  <symbol viewBox="0 0 24 24" xmlns="http://www.w3.org/2000/svg" id="dislike" stroke='#fff' stroke-width='1' >
    <path d="M22.25 1h-2.5C18.785 1 18 1.785 18 2.75v11.5c0 .965.785 1.75 1.75 1.75h2.5c.965 0 1.75-.785 1.75-1.75V2.75C24 1.785 23.215 1 22.25 1zM5.119.75c-1.95 0-3.61 1.4-3.94 3.32l-1.12 6.5a3.998 3.998 0 0 0 3.94 4.68h4.72s-.75 1.5-.75 4c0 3 2.25 4 3.25 4s1.5-.5 1.5-3c0-2.376 2.301-4.288 3.781-5.273V2.589C14.899 1.848 11.694.75 6.719.75z"></path>
  </symbol>
   <symbol viewBox="0 0 192.76 192.76" xmlns="http://www.w3.org/2000/svg" id="movieCity">
    <g clip-rule="evenodd" fill-rule="evenodd">
      <path d="M0 0h192.756v192.756H0V0z" fill="#fff"></path>
      <path d="M13.523 143.459h2.147v-1.689h-2.147v1.689zm9.048-19.063h2.123v-1.688h-2.123v1.688zm-1.641-7.695h1.737v-1.352H20.93v1.352zm.265-6.299h2.123v-1.689h-2.123v1.689zm19.085 29.871h2.124v-1.689H40.28v1.689zm9.29.168h2.123v-1.688H49.57v1.688zm10.134-1.205h3.161v-4.127h-3.161v4.127zm-12.257-6.007h6.466v-5.646h-6.466v5.646zm-3.499-18.532h1.496v-1.182h-1.496v1.182zm-6.394-4.295h7.673v-3.547h-7.673v3.547zm-5.356-11.871h1.423v-1.133h-1.423v1.133zm-.917-6.345h2.123v-1.689h-2.123v1.689zm35.468-2.605h1.399v-1.134h-1.399v1.134zm9.579-14.864h1.496v-1.182h-1.496v1.182zm-9.483 8.518h2.124v-3.45h-2.124v3.45zm12.643-1.714h1.906v-1.11h-1.906v1.11zm24.248 9.459h1.496v-1.207h-1.496v1.207zm-.578-5.815h1.496v-2.461h-1.496v2.461zm11.799.989h8.18v-3.16h-8.18v3.16zm3.787-15.466h3.547v-3.209h-3.547v3.209zm9.242-1.52h1.52v-1.641h-1.52v1.641zm-3.547-23.09h2.727v-2.461h-2.727v2.461zm-3.306 5.043h2.004v-1.834h-2.004v1.834zm6.611 4.295h3.186v-1.81h-3.186v1.81zm8.469 31.944h2.268v-3.209h-2.268v3.209zm8.879-7.889h1.932v-2.437h-1.932v2.437zm31.97 6.611h2.918v-2.026h-2.918v2.026zm-.121 54.094h2.123v-2.002h-2.123v2.002zm-6.877-7.334h3.836v-5.525h-3.836v5.525zM119.18 39.78h11.412v9.289h4.078v10.038h4.246V71.17c0 .338.096.652.312.893.219.265.482.386.797.41l10.857.024v15.78H173.2V82.27h10.93l.121 63.312h-20.654v-22.609h13.029l.072-29.194H50.994l-.072 30.063h17.565v21.691H8.504v-9.748h4.416v-10.086h3.522v-20.098h7.601v-2.559h2.268v-15.73h14.09v15.129h6.732V91.173h14.622v-15.49h5.212v-6.225h16.672v6.9h1.52v14.405h12.812V79.181h16.383V57.152h2.484v-8.879h2.342V39.78zM60.934 96.818a11.744 11.744 0 0 1 4.488-.289c1.423.168 2.63 1.062 3.33 2.438l3.281 6.73c.145.291.41.482.7.482a.755.755 0 0 0 .7-.482l3.282-6.635c.772-1.545 2.196-2.533 3.812-2.605 1.472-.072 2.823.217 4.174.869.506.24.82.82.82 1.424-.024.627-.362 1.156-.893 1.375-.506.217-.844.723-.893 1.326-.362 4.633-.338 8.855.048 13.488.048.506.362.941.796 1.109.603.266.989.965.917 1.664-.048.725-.531 1.328-1.183 1.449-2.799.602-5.429.602-8.203 0-.627-.146-1.11-.725-1.183-1.424-.072-.701.29-1.4.893-1.666.435-.217.724-.676.724-1.205l.145-4.85c.024-.291-.169-.58-.435-.652a.597.597 0 0 0-.651.338l-3.957 8.711c-.145.264-.41.457-.676.434a.729.729 0 0 1-.676-.459l-3.957-9.072a.527.527 0 0 0-.627-.312c-.241.047-.435.289-.458.578l-.073 5.309c-.024.652.362 1.254.941 1.424.555.168.941.748.941 1.375.024.627-.362 1.207-.917 1.375-2.051.652-4.053.676-6.128.098-.603-.146-1.037-.748-1.037-1.424 0-.701.434-1.303 1.037-1.447.507-.146.917-.629.989-1.207a79.17 79.17 0 0 0 .386-13.729c-.048-.58-.458-1.062-.965-1.135-.531-.072-.965-.459-1.134-1.014a1.642 1.642 0 0 1 .313-1.592c.388-.41.822-.676 1.329-.797zm34.19 12.088c.338 1.352.82 2.51 1.496 3.717.387.699.869 1.23 1.496 1.664.459.314.965.436 1.496.361.531-.072.99-.336 1.352-.795.338-.436.555-.941.604-1.521a10.68 10.68 0 0 0-.025-1.953c-.312-2.51-.988-4.729-2.146-6.9-.314-.531-.627-.99-1.014-1.447-.121-.121-.242-.242-.361-.314a2.142 2.142 0 0 0-2.076-.217c-.7.312-1.207.941-1.399 1.713a5.88 5.88 0 0 0-.121 1.834c.118 1.35.335 2.556.698 3.858zm-1.689-11.652c2.002-.846 3.981-1.135 6.104-.894 4.754.556 8.637 4.608 9.385 9.819.58 3.668-.457 7.311-2.822 9.941-2.027 2.172-4.535 3.426-7.359 3.619-2.823.193-5.453-.699-7.696-2.582-3.088-2.51-4.657-6.562-4.15-10.736.505-4.173 2.966-7.648 6.538-9.167zm24.682 20.652l-7.143-16.744c-.191-.387-.506-.652-.916-.699-.627-.072-1.135-.58-1.254-1.256-.121-.676.168-1.375.748-1.689 1.037-.602 2.098-.965 3.281-1.085 1.496-.169 2.871-.169 4.367.048a7.652 7.652 0 0 1 2.75.941c.506.266.797.844.748 1.473-.049.602-.41 1.109-.941 1.303a.713.713 0 0 0-.385.361.72.72 0 0 0 0 .555l2.34 5.623c.121.24.338.41.604.41a.65.65 0 0 0 .578-.436l2.389-5.838a.87.87 0 0 0 0-.604c-.096-.217-.217-.363-.41-.41-.555-.217-.941-.773-.941-1.424-.023-.627.338-1.23.893-1.447 2.316-.99 4.754-.918 7.021.191.58.291.893.99.748 1.666s-.723 1.158-1.352 1.109a1.167 1.167 0 0 0-1.133.748l-7.287 17.154c-.434 1.014-1.326 1.666-2.34 1.689-1.013.002-1.931-.625-2.365-1.639zm17.879-20.605c3.209-1.133 6.441-1.133 9.65 0 .58.217.967.82.967 1.496-.025.676-.436 1.256-1.014 1.447-.459.146-.773.58-.82 1.111-.338 4.486-.291 8.637.119 13.125.049.578.41 1.062.895 1.207.674.217 1.133.939 1.084 1.736-.047.604-.434 1.109-.965 1.279-3.328 1.109-6.658 1.109-9.988.023-.627-.217-1.037-.869-1.014-1.592.025-.725.508-1.328 1.158-1.473.555-.119.99-.65 1.014-1.277a88.385 88.385 0 0 0-.072-12.885c-.023-.604-.434-1.109-.965-1.256-.627-.145-1.062-.795-1.037-1.494.023-.674.41-1.254.988-1.447zm14.742-.699h13.945c.41.023.797-.049 1.184-.193.506-.217 1.086-.072 1.496.361 1.35 1.449 1.785 3.693 1.086 5.623-.242.627-.748 1.037-1.352 1.086-.604.023-1.184-.338-1.473-.918-.604-1.303-1.762-2.123-3.064-2.244a11.559 11.559 0 0 0-3.16.098c-.338.072-.604.387-.652.748a24.049 24.049 0 0 0-.119 3.957.75.75 0 0 0 .217.531.62.62 0 0 0 .459.24c.482.072.916.049 1.398-.096.289-.072.506-.363.531-.701a8.83 8.83 0 0 1 .193-1.592c.096-.387.312-.725.65-.893a1.056 1.056 0 0 1 1.037-.023c.701.338 1.184.988 1.352 1.809.363 2.004.387 3.908 0 5.912a5.298 5.298 0 0 1-.531 1.615c-.24.484-.627.797-1.109.895a1.112 1.112 0 0 1-.941-.242 1.449 1.449 0 0 1-.457-.916 5.814 5.814 0 0 0-.291-1.594.814.814 0 0 0-.771-.627c-.312 0-.604 0-.916.049a.712.712 0 0 0-.459.24 1.22 1.22 0 0 0-.193.482c-.072 1.545 0 2.92.242 4.439.072.436.385.773.771.822 1.158.145 2.195.145 3.354 0a3.92 3.92 0 0 0 1.979-.846c.699-.604 1.207-1.326 1.568-2.244.289-.748 1.037-1.207 1.785-1.037.725.145 1.279.869 1.303 1.689a9.527 9.527 0 0 1-.627 3.668c-.387.916-.82 1.688-1.398 2.461-.338.434-.893.602-1.375.385a4.17 4.17 0 0 0-1.787-.385h-13.994c-.578 0-1.061-.484-1.158-1.111-.096-.627.242-1.254.797-1.471.748-.289 1.303-1.037 1.398-1.932.484-4.656.459-8.975-.119-13.631-.098-.773-.58-1.424-1.256-1.666a1.322 1.322 0 0 1-.676-.627c-.145-.289-.191-.627-.145-.965.049-.338.219-.604.459-.82.241-.215.505-.336.819-.336zm-58.293 29.242c1.085 1.496 1.592 3.307 1.472 5.213-.072 1.303-.941 2.389-2.099 2.654-1.158.24-2.341-.41-2.847-1.594-.748-1.688-2.051-2.895-3.691-3.449-.844-.266-1.713-.145-2.485.338a3.497 3.497 0 0 0-1.473 2.219c-.651 2.92.193 5.936 2.196 7.963 1.278 1.279 2.968 1.809 4.681 1.52 1.351-.266 2.509-.916 3.475-2.002a1 1 0 0 1 .603-.289c.241 0 .458.072.627.217.482.387.748.988.748 1.641.024 1.664-.604 3.186-1.737 4.27a1.275 1.275 0 0 1-.796.363 1.81 1.81 0 0 0-.869.266 11.933 11.933 0 0 1-3.354 1.496c-3.04.867-6.153.266-8.734-1.715-2.582-1.979-4.175-4.994-4.488-8.443-.338-4.174 1.327-8.131 4.416-10.568 3.113-2.412 7.07-2.848 10.52-1.109a1.948 1.948 0 0 0 1.786 0c.337-.17.724-.17 1.038.047.384.239.722.552 1.011.962zm4.391-1.037c3.208-1.133 6.443-1.133 9.652 0 .578.217.965.82.965 1.496-.025.676-.436 1.256-1.014 1.447-.459.145-.771.58-.797 1.086a77.206 77.206 0 0 0 .098 13.15c.047.578.41 1.062.916 1.207.676.217 1.135.939 1.062 1.713-.049.604-.436 1.109-.941 1.303-3.354 1.109-6.66 1.109-10.013.023-.604-.217-1.038-.867-1.014-1.592.048-.725.531-1.328 1.158-1.473.554-.119.99-.65 1.039-1.277a88.726 88.726 0 0 0-.074-12.91c-.047-.578-.434-1.086-.964-1.23-.627-.145-1.086-.795-1.062-1.52.025-.65.41-1.23.989-1.423zm17.541-.7h11.316c.41-.314.846-.434 1.328-.387.482.025.916.242 1.254.629 1.352 1.471 2.1 3.354 2.172 5.453.047 1.012-.482 1.977-1.352 2.387-.844.41-1.834.219-2.51-.506a7.518 7.518 0 0 1-1.543-2.533.775.775 0 0 0-.869-.508c-.363.072-.627.436-.627.846l.047 9.193c.025 1.012.072 1.93.193 2.943.072.65.555 1.182 1.135 1.277.578.072 1.061.531 1.207 1.158.145.629-.049 1.279-.531 1.666a4.57 4.57 0 0 1-2.027.916 26.634 26.634 0 0 1-6.805.217 5.302 5.302 0 0 1-2.629-.916c-.58-.361-.869-1.109-.725-1.834.17-.725.725-1.23 1.4-1.303.555-.049 1.012-.531 1.086-1.158.336-3.258.482-6.225.41-9.531a20.388 20.388 0 0 0-.242-2.678.697.697 0 0 0-.531-.65.643.643 0 0 0-.723.312c-.41.627-.797 1.184-1.23 1.785-.41.508-.82.918-1.352 1.279-.58.387-1.279.434-1.883.121a2.183 2.183 0 0 1-1.133-1.664 5.19 5.19 0 0 1 .145-2.125c.482-1.592 1.23-2.918 2.291-4.076.726-.795 1.884-.916 2.728-.313zm24.225 9.604l-3.764-4.85a2.809 2.809 0 0 0-1.736-1.135c-.629-.168-1.086-.771-1.111-1.496-.023-.699.387-1.352 1.014-1.543 3.523-1.111 7.021-1.086 10.52.047.508.193.893.652.99 1.207.096.578-.098 1.158-.508 1.52a.65.65 0 0 0-.217.387c-.023.168-.023.312.049.457.361.676.725 1.232 1.158 1.811.121.17.289.266.482.266s.361-.072.482-.217a8.358 8.358 0 0 0 1.207-1.785.612.612 0 0 0 .047-.459c-.023-.17-.096-.314-.217-.387a1.579 1.579 0 0 1-.578-1.496c.072-.578.434-1.037.916-1.23 2.293-.867 4.584-.988 6.9-.312.652.193 1.086.867 1.037 1.592-.047.725-.555 1.326-1.205 1.424-.846.121-1.568.555-2.148 1.279l-3.402 4.295a4.987 4.987 0 0 0-1.109 2.967 39.214 39.214 0 0 0 .289 5.84c.074.555.436 1.012.895 1.133.602.145 1.037.699 1.109 1.352.072.65-.242 1.279-.748 1.592a6.831 6.831 0 0 1-2.221.797 20.737 20.737 0 0 1-5.861.17c-1.039-.121-1.955-.459-2.873-1.039-.529-.338-.795-.988-.699-1.641.121-.65.58-1.158 1.182-1.254.508-.072.918-.531.967-1.086.24-1.834.312-3.547.191-5.404a4.79 4.79 0 0 0-1.038-2.802z"></path>
    </g>
  </symbol>
   <symbol viewBox="0 0 20.633 20.633" xmlns="http://www.w3.org/2000/svg" id="arrow">
    <path d="M10.79 15.617l9.648-9.646c.133-.131.195-.301.195-.473s-.062-.344-.195-.473l-.012-.012a.66.66 0 0 0-.472-.195h-4.682a.656.656 0 0 0-.473.195l-4.48 4.479-4.48-4.479a.672.672 0 0 0-.473-.195H.684a.66.66 0 0 0-.475.195l-.013.012C.068 5.148 0 5.322 0 5.498s.068.348.196.473l9.648 9.646a.666.666 0 0 0 .946 0z"></path>
  </symbol>
</svg>
