<svg width="0" height="0" class="hidden">
  <symbol  width='48' height='48' xmlns="http://www.w3.org/2000/svg" viewBox="0 0 512 512" id="instagram" fill="#1890ff">
    <path d="M352 0H160C71.648 0 0 71.648 0 160v192c0 88.352 71.648 160 160 160h192c88.352 0 160-71.648 160-160V160C512 71.648 440.352 0 352 0zm112 352c0 61.76-50.24 112-112 112H160c-61.76 0-112-50.24-112-112V160C48 98.24 98.24 48 160 48h192c61.76 0 112 50.24 112 112v192z"></path>
    <path d="M256 128c-70.688 0-128 57.312-128 128s57.312 128 128 128 128-57.312 128-128-57.312-128-128-128zm0 208c-44.096 0-80-35.904-80-80 0-44.128 35.904-80 80-80s80 35.872 80 80c0 44.096-35.904 80-80 80z"></path>
    <circle cx="393.6" cy="118.4" r="17.056"></circle>
  </symbol>
  <symbol fill="#1890ff"  width='48' height='48' xmlns="http://www.w3.org/2000/svg" viewBox="0 0 512 512" id="twitter">
    <path d="M512 97.248c-19.04 8.352-39.328 13.888-60.48 16.576 21.76-12.992 38.368-33.408 46.176-58.016-20.288 12.096-42.688 20.64-66.56 25.408C411.872 60.704 384.416 48 354.464 48c-58.112 0-104.896 47.168-104.896 104.992 0 8.32.704 16.32 2.432 23.936-87.264-4.256-164.48-46.08-216.352-109.792-9.056 15.712-14.368 33.696-14.368 53.056 0 36.352 18.72 68.576 46.624 87.232-16.864-.32-33.408-5.216-47.424-12.928v1.152c0 51.008 36.384 93.376 84.096 103.136-8.544 2.336-17.856 3.456-27.52 3.456-6.72 0-13.504-.384-19.872-1.792 13.6 41.568 52.192 72.128 98.08 73.12-35.712 27.936-81.056 44.768-130.144 44.768-8.608 0-16.864-.384-25.12-1.44C46.496 446.88 101.6 464 161.024 464c193.152 0 298.752-160 298.752-298.688 0-4.64-.16-9.12-.384-13.568 20.832-14.784 38.336-33.248 52.608-54.496z"></path>
  </symbol>
  <symbol fill="#1890ff"  width='48' height='48' xmlns="http://www.w3.org/2000/svg" viewBox="0 0 512 512" id="facebook">
    <path d="M288 176v-64c0-17.664 14.336-32 32-32h32V0h-64c-53.024 0-96 42.976-96 96v80h-64v80h64v256h96V256h64l32-80h-96z"></path>
  </symbol>
  <symbol viewBox="0 0 512 512" xmlns="http://www.w3.org/2000/svg" id="like">
    <path d="M512 304c0-12.821-5.099-24.768-13.888-33.579 9.963-10.901 15.04-25.515 13.653-40.725-2.496-27.115-26.923-48.363-55.637-48.363h-131.78c6.528-19.819 16.981-56.149 16.981-85.333 0-46.272-39.317-85.333-64-85.333-22.144 0-37.995 12.48-38.656 12.992A10.672 10.672 0 0 0 234.662 32v72.341l-61.461 133.1-2.539 1.301v-4.075c0-5.888-4.779-10.667-10.667-10.667H53.325c-29.418.001-53.333 23.916-53.333 53.334v170.67c0 29.419 23.915 53.333 53.333 53.333h64c23.061 0 42.773-14.72 50.197-35.264 17.75 9.131 41.643 13.931 56.47 13.931h195.82c23.232 0 43.563-15.659 48.341-37.248 2.453-11.136 1.024-22.336-3.84-32.064 15.744-7.915 26.347-24.192 26.347-42.688 0-7.552-1.728-14.784-4.992-21.312 15.744-7.936 26.325-24.192 26.325-42.688zm-44.992 26.325a10.719 10.719 0 0 0-8.917 7.232 10.688 10.688 0 0 0 2.816 11.136c5.419 5.099 8.427 11.968 8.427 19.307 0 13.461-10.176 24.768-23.637 26.325a10.719 10.719 0 0 0-8.917 7.232 10.688 10.688 0 0 0 2.816 11.136c7.019 6.613 9.835 15.893 7.723 25.451-2.624 11.904-14.187 20.523-27.499 20.523H224c-17.323 0-46.379-8.128-56.448-18.219-3.051-3.029-7.659-3.925-11.627-2.304a10.667 10.667 0 0 0-6.592 9.856c0 17.643-14.357 32-32 32h-64c-17.643 0-32-14.357-32-32V277.33c0-17.643 14.357-32 32-32h96v10.667c0 3.691 1.92 7.125 5.077 9.088a10.902 10.902 0 0 0 10.368.448l21.333-10.667a10.65 10.65 0 0 0 4.907-5.056l64-138.67c.64-1.408.981-2.944.981-4.48V37.775c4.438-2.453 12.14-5.781 21.334-5.781 11.691 0 42.667 29.056 42.667 64 0 37.547-20.437 91.669-20.629 92.203a10.739 10.739 0 0 0 1.173 9.856 10.728 10.728 0 0 0 8.789 4.608h146.8c17.792 0 32.896 12.736 34.389 28.992 1.131 12.16-4.715 23.723-15.189 30.187-3.264 2.005-5.205 5.632-5.056 9.493s2.368 7.317 5.781 9.088c9.024 4.587 14.613 13.632 14.613 23.573.001 13.461-10.175 24.768-23.658 26.325z"></path>
    <path d="M160 245.33c-5.888 0-10.667 4.779-10.667 10.667v192c0 5.888 4.779 10.667 10.667 10.667s10.667-4.779 10.667-10.667v-192c0-5.888-4.779-10.667-10.667-10.667z"></path>
  </symbol>
  <svg width="0" height="0" class="hidden">
  <symbol viewBox="0 0 512.01 512.01" xmlns="http://www.w3.org/2000/svg" id="dislike">
    <path  d="M498.13 241.58c8.768-8.811 13.867-20.757 13.867-33.579 0-18.496-10.581-34.752-26.325-42.688 3.264-6.528 4.992-13.76 4.992-21.312 0-18.496-10.603-34.773-26.347-42.688 4.864-9.728 6.293-20.928 3.84-32.043-4.779-21.611-25.109-37.269-48.341-37.269h-195.82c-14.827 0-38.72 4.8-56.469 13.931-7.424-20.544-27.136-35.264-50.197-35.264h-64c-29.419 0-53.334 23.914-53.334 53.333v170.67c0 29.419 23.915 53.333 53.333 53.333h106.67c5.888 0 10.667-4.779 10.667-10.667v-4.075l2.539 1.28 61.461 133.12v72.341c0 3.243 1.472 6.315 3.989 8.341.683.512 16.533 12.992 38.677 12.992 24.683 0 64-39.061 64-85.333 0-29.184-10.453-65.515-16.981-85.333h131.78c28.715 0 53.141-21.248 55.659-48.363 1.386-15.21-3.691-29.823-13.654-40.724zm-22.805 8.597c10.475 6.464 16.32 18.027 15.189 30.187-1.493 16.235-16.597 28.971-34.389 28.971h-146.8a10.726 10.726 0 0 0-8.789 4.608c-1.984 2.901-2.432 6.592-1.173 9.856.192.533 20.629 54.656 20.629 92.203 0 34.944-30.976 64-42.667 64-9.195 0-16.917-3.349-21.333-5.781v-68.885a10.55 10.55 0 0 0-1.003-4.48l-64-138.67a10.645 10.645 0 0 0-4.907-5.056l-21.333-10.667c-3.307-1.664-7.253-1.451-10.368.448-3.136 1.963-5.056 5.397-5.056 9.088v10.667h-96c-17.643 0-32-14.357-32-32V63.996c0-17.643 14.357-32 32-32h64c17.643 0 32 14.357 32 32 0 4.309 2.603 8.213 6.592 9.856a10.777 10.777 0 0 0 11.627-2.304c10.069-10.091 39.125-18.219 56.448-18.219h195.82c13.312 0 24.875 8.619 27.499 20.565 2.112 9.536-.704 18.795-7.723 25.429a10.624 10.624 0 0 0-2.816 11.136 10.685 10.685 0 0 0 8.917 7.232c13.461 1.536 23.637 12.843 23.637 26.304 0 7.339-3.008 14.208-8.405 19.328a10.624 10.624 0 0 0-2.816 11.136 10.685 10.685 0 0 0 8.917 7.232c13.461 1.536 23.637 12.843 23.637 26.304 0 9.941-5.589 18.987-14.613 23.595a10.747 10.747 0 0 0-5.781 9.088 10.703 10.703 0 0 0 5.056 9.494z"></path>
    <path d="M160 53.339c-5.888 0-10.667 4.779-10.667 10.667v192c0 5.888 4.779 10.667 10.667 10.667s10.667-4.779 10.667-10.667v-192c0-5.888-4.779-10.667-10.667-10.667z"></path>
  </symbol>
</svg>
</svg>
